<?xml version="1.0" encoding="utf-8"?>
<!-- Generator: Adobe Illustrator 24.2.3, SVG Export Plug-In . SVG Version: 6.00 Build 0)  -->
<svg version="1.1" id="Layer_1" xmlns="http://www.w3.org/2000/svg" xmlns:xlink="http://www.w3.org/1999/xlink" x="0px" y="0px"
	 viewBox="0 0 44.6 49" style="enable-background:new 0 0 44.6 49;" xml:space="preserve">
<style type="text/css">
	.st0{fill:#8B60B0;stroke:#558A00;stroke-miterlimit:10;}
	.st1{fill:#8B60B0;}
</style>
<path class="st0" d="M47.2,3.3"/>
<path class="st1" d="M9.3,39.8c-0.6-0.3-1.2-0.8-1.6-1.4c-0.7-1-1.2-2.1-1.4-3.3c-0.1-0.8-0.3-1.6-0.4-2.4
	c-0.5,3.9-0.1,7.9,1.2,11.7H7.1c-0.2-0.2-0.4-0.4-0.6-0.7c-1.1-1.2-1.9-2.6-2.5-4.1c-0.5-1.3-0.8-2.6-1-4c-0.1-1-0.2-2-0.1-3
	c0-1.3,0.2-2.6,0.5-3.8c0.2-1,0.4-2.1,0.8-3.1c0.4-1.3,0.9-2.6,1.4-3.9c0.5-1.2,1-2.4,1.7-3.5c0.7-1.3,1.5-2.7,2.3-4
	c0.7-1.1,1.5-2.1,2.3-3.2c0.6-0.7,1.3-1.4,1.9-2c0,0,0.1,0,0.1,0c-1.9,3.2-3.2,6.6-4,10.2l0.7-1.1c0.9-1.3,1.9-2.6,3.1-3.7
	c1-1,2.1-1.8,3.4-2.5c0.6-0.3,1.3-0.5,1.9-0.8c0.1,0,0.1,0,0.2,0c-0.3,0.2-0.5,0.4-0.8,0.7c-0.8,0.9-1.7,1.7-2.5,2.6
	c-0.9,1-1.6,2-2.3,3.1c-0.8,1.3-1.4,2.6-1.9,4c-0.2,0.7-0.4,1.5-0.6,2.3c1.3-1.6,2.7-3,4.8-3.4C10.4,25.3,7.9,32.7,9.3,39.8z"/>
<path class="st1" d="M16.7,42.6c-0.1,0.6,0,1.2,0.3,1.7c0.6,1.3,1.3,2.5,2.3,3.5c0.3,0.4,0.6,0.8,0.9,1.2c-0.1,0-0.2,0-0.4-0.1
	c-1.3-0.6-2.6-1.4-3.8-2.3c-0.9-0.8-1.7-1.7-2.4-2.7c-0.7-1-1.2-2.1-1.5-3.2c-0.4-1.2-0.6-2.4-0.7-3.6c-0.1-1.3-0.1-2.7,0.1-4
	c0.2-1.2,0.4-2.4,0.7-3.6c0.3-1.2,0.7-2.3,1.1-3.4c0.3-0.8,0.7-1.6,1-2.4h0.1c0,0.1,0,0.2,0.1,0.3c0,0.8,0,1.5,0,2.3
	c0,1.4,0,2.9,0.2,4.3c0.1,1.2,0.3,2.5,0.5,3.7c0.2,1.1,0.5,2.2,0.9,3.3c0.4,1,1,1.8,1.8,2.5l0.1,0.1l0.3,0.2c0-0.1,0-0.1,0-0.2
	c0-0.9,0-1.8,0.1-2.7c0.1-0.6,0.2-1.1,0.3-1.7c0-0.1,0-0.1,0.1-0.2c0.1-0.1,0.2-0.2,0.3-0.2c0.1,0.1,0.1,0.2,0.1,0.3
	c0.4,1.4,1,2.8,2,3.9c1.1,1.3,2.5,2.3,3.9,3.1c1.5,0.9,3.2,1.6,4.9,2.1c1.4,0.4,2.8,0.8,4.2,1.2c0.8,0.2,1.7,0.4,2.5,0.6l0.4,0.1
	v0.1c-0.3,0.1-0.6,0.2-0.9,0.3c-0.9,0.2-1.8,0.3-2.7,0.5c-0.3,0-0.7,0.1-1,0.1c-1.4,0.1-2.8,0-4.1-0.1c-1.4-0.2-2.7-0.5-4.1-0.9
	c-2.6-0.8-5-2.1-7.1-3.7L16.7,42.6z"/>
<path class="st1" d="M26.8,37.9c-2-3.5-3-7.5-2.9-11.5c1.3,3.6,3.7,6.7,7,8.7c-1-1.3-1.7-2.7-2.1-4.2l0.1,0l0.1,0.1
	c1,1.5,2.4,2.8,4.1,3.7c1.7,0.9,3.6,1.5,5.5,1.9c1.4,0.3,2.8,0.4,4.2,0.4h0.3c0,0,0,0,0.1,0.1c-0.2,0.1-0.4,0.3-0.6,0.4
	c-0.6,0.3-1.2,0.6-1.8,0.8c-0.9,0.3-1.8,0.5-2.8,0.6c-1,0.1-2.1,0-3.1-0.2c-1.1-0.2-2.2-0.5-3.3-1c-1.2-0.5-2.3-1.2-3.3-2l-0.2-0.1
	c0.1,0.2,0.1,0.4,0.2,0.5c0.7,1.5,1.7,2.8,3,3.8c0.8,0.7,1.7,1.3,2.7,1.9c1.1,0.6,2.2,1.1,3.3,1.5l0.8,0.3v0.1c-0.3,0-0.7,0-1,0
	c-0.5,0-1,0-1.5-0.1c-1-0.1-2-0.2-2.9-0.4c-1-0.2-2-0.5-3-0.8c-1.2-0.4-2.3-1-3.4-1.7c-1.7-1.1-3.3-2.5-4.5-4.2
	c-1-1.4-1.9-3-2.4-4.6c-0.3-0.9-0.6-1.8-0.9-2.8c-0.2-1-0.4-2-0.5-3c-0.1-0.9-0.2-1.9-0.2-2.8c0-0.4,0-0.8,0-1.3c0-0.1,0-0.3,0-0.4
	h0.1c0.1,0.1,0.1,0.3,0.2,0.4c0.3,1,0.6,2,1,3c0.2,0.7,0.5,1.4,0.8,2.1s0.6,1.5,0.9,2.3s0.7,1.6,1.1,2.3c0.5,1,1,1.9,1.6,2.8
	c0.6,0.9,1.3,1.8,2.1,2.5C25.8,37.3,26.3,37.7,26.8,37.9z"/>
<path class="st1" d="M34.3,4.5h-0.4c-0.7,0-1.4,0-2.1,0c-0.5,0-0.9-0.1-1.3-0.4c-0.9-0.7-2-1.2-3.1-1.6c-1-0.3-1.9-0.5-2.9-0.7
	c-0.5-0.1-1-0.1-1.5-0.1c-1.3-0.1-2.6,0-3.9,0.1c-1.1,0.1-2.2,0.3-3.3,0.5l-3.4,0.5c-0.1,0-0.2,0-0.4,0c0.1-0.1,0.1-0.2,0.1-0.2
	c0.7-0.6,1.5-1,2.3-1.3c1-0.4,2-0.6,3.1-0.8c0.7-0.1,1.4-0.2,2.1-0.3c1-0.1,2.1-0.2,3.2-0.2s2.3,0.1,3.4,0.2
	c1.4,0.1,2.7,0.4,4.1,0.7c1.7,0.5,3.2,1.3,4.6,2.4c0.4,0.2,0.6,0.6,0.8,1c0,0.1,0.1,0.3,0.1,0.4c0.4,0,0.8,0,1.2,0.1
	c0.3,0,0.7,0.2,0.9,0.4c0.4,0.4,0.8,0.6,1.3,0.7c0.8,0.3,1.5,0.7,2.2,1.2c1.1,0.9,1.8,2.2,2.1,3.6c0.4,1.5,0.2,3-0.5,4.4
	c-0.2,0.4-0.5,0.7-0.7,1.1H42c-0.1-0.2-0.1-0.3-0.1-0.5c0-0.7,0-1.4,0-2.1c0-0.2-0.1-0.2-0.3-0.3l-2.5-0.1c-0.9,0-1.8,0-2.8-0.1
	c-0.7,0-1.3,0-2,0.2c-0.1,0-0.1,0-0.2,0c0.3-0.3,0.6-0.4,1-0.5c1-0.2,2.1-0.4,3.2-0.5c-0.3-0.3-0.7-0.5-1.2-0.6
	c-0.5-0.1-1-0.2-1.5-0.2c-1.3,0-2.6,0.1-4,0.2c-0.8,0-1.5,0.1-2.3,0.2v-0.1c0.2-0.1,0.5-0.2,0.7-0.3c0.6-0.2,1.2-0.4,1.9-0.5
	c0.8-0.2,1.6-0.3,2.4-0.4h0.2c0.3-0.1,0.7,0,1,0.2c0.3,0.2,0.7,0.3,1.1,0.3c0.6,0,1.1,0.2,1.6,0.5c0.7,0.3,1.4,0.6,2.2,0.6
	c0.4,0,0.7,0.1,1.1,0.3c0.3,0.1,0.5,0.4,0.5,0.6c0.1,0.8,0.1,1.7-0.1,2.5c0,0.1,0,0.1,0,0.2c0.2-0.3,0.3-0.5,0.5-0.8
	c0.5-0.9,0.8-2,0.6-3c-0.1-0.6-0.2-1.2-0.4-1.7c-0.5-1.7-1.9-3-3.5-3.5c-0.4-0.1-0.7-0.2-1.1-0.3c-0.2-0.1-0.4-0.2-0.6-0.3
	c-0.2-0.3-0.5-0.4-0.8-0.4c-0.5-0.1-1.1,0-1.6,0.2c-0.7,0.3-1.5,0.5-2.3,0.5c-0.7,0.1-1.3,0.2-2,0.3c0.1,0.4-0.1,0.8-0.4,1.1
	c-0.5,0.5-1.1,1-1.8,1.3c-0.3,0.2-0.6,0.3-1,0.5l-0.3,0.1c0.1-0.2,0.3-0.5,0.4-0.7c0.1-0.4-0.1-0.7-0.5-0.6S26.4,8.8,26,8.9
	c-0.5,0.3-1.1,0.4-1.6,0.3c-0.4-0.1-0.7-0.3-1.1-0.5c-0.3-0.1-0.6-0.3-0.9-0.5c-0.6-0.3-1.3-0.3-2-0.2c-0.8,0.1-1.5,0.2-2.3,0.3
	l0-0.1c0.3-0.2,0.6-0.4,0.9-0.5s0.7-0.3,1-0.5s0.7-0.3,1-0.4s0.7-0.2,1.1-0.3c-0.3-0.1-0.6-0.1-0.9-0.1c-1.2,0-2.4,0.1-3.5,0.4
	L17,7.1c1-0.7,2.1-1.1,3.2-1.3c1.1-0.3,2.3-0.2,3.5,0.1c0-0.2-0.2-0.4-0.4-0.5c-0.6-0.3-1.3-0.6-1.9-0.7h-0.1V4.6h0.4
	c1.5,0.1,2.9,0.5,4.1,1.3c0.9,0.6,1.9,0.8,2.9,0.6c0.4-0.1,0.9-0.1,1.3-0.1c0.2,0,0.4,0,0.5,0.1c0.1,0.1,0.3,0.1,0.4,0
	c0.8-0.4,1.6-0.8,2.4-1.2C33.6,5.1,33.8,5,34,4.8C34.1,4.7,34.2,4.6,34.3,4.5z M25.4,6.7l0.1,0.2c0.2,0.4,0.2,0.9-0.1,1.3
	c-0.2,0.4-0.7,0.5-1.1,0.2c-0.1-0.1-0.2-0.2-0.3-0.3C24,7.9,24,7.7,24,7.4c0-0.3,0.1-0.5,0.2-0.8c-0.2-0.1-0.5,0.1-0.6,0.3
	c-0.3,0.7-0.1,1.5,0.6,1.8c0.7,0.3,1.5,0.1,1.8-0.6c0.1-0.2,0.2-0.4,0.1-0.7C26.2,7,26,6.7,25.4,6.7z"/>
<path class="st1" d="M0.2,32.2c-0.1-0.3-0.1-0.6-0.1-0.9c0-0.7,0-1.3,0-2c0.1-1,0.2-2,0.4-3c0.3-1.5,0.7-3,1.2-4.5
	c0.3-1.1,0.8-2.2,1.3-3.3c0-0.1,0-0.2,0-0.2l-2.2,1.2l-0.1-0.1c0.2-0.3,0.3-0.7,0.5-1c0.9-1.5,2-2.9,3.2-4.2c1.3-1.5,2.8-2.8,4.4-4
	c1.3-1,2.7-1.8,4.2-2.4c0.4-0.1,0.7-0.3,1.1-0.4c0.1,0,0.1,0,0.2,0v0.1l-0.6,0.6c-0.6,0.6-1.2,1.2-1.7,1.8c-1,1.1-2,2.3-2.8,3.6
	c-0.8,1.1-1.5,2.3-2.2,3.4c-0.8,1.4-1.6,2.8-2.3,4.3c-0.6,1.2-1.1,2.4-1.6,3.6S2.2,26.9,1.8,28s-0.9,2.5-1.3,3.7
	c-0.1,0.2-0.1,0.3-0.2,0.5H0.2z"/>
<path class="st1" d="M24.8,20.6l0.9,1.2c1.3,1.8,2.9,3.4,4.6,4.7c1.3,1,2.8,1.9,4.3,2.5c2,0.8,4.2,1.1,6.3,0.9h0.5
	c-0.2,0.4-0.4,0.7-0.8,0.9c-0.7,0.5-1.4,0.7-2.3,0.8c-0.7,0-1.4,0-2.1,0h-0.2v0.1c0.2,0.1,0.3,0.2,0.5,0.3c0.8,0.4,1.7,0.8,2.6,0.9
	c1.6,0.3,3.2,0.4,4.8,0.3h0.3h0.1l-0.5,0.3c-1,0.5-2.1,0.8-3.2,0.9c-1.3,0.2-2.6,0.1-3.9-0.2c-1.8-0.5-3.5-1.3-5-2.4
	c-0.9-0.7-1.8-1.5-2.6-2.4c-0.9-1-1.7-2.1-2.3-3.2c-0.4-0.8-0.8-1.5-1.2-2.4s-0.7-1.8-1-2.7C24.9,21,24.8,20.8,24.8,20.6L24.8,20.6z
	"/>
<path class="st1" d="M23.5,3.2c-0.7,0.2-1.4,0.3-2,0.5c-1.1,0.3-2.1,0.6-3.2,1c-0.9,0.3-1.7,0.6-2.5,1c-1.1,0.5-2.2,1.1-3.3,1.7
	C11.1,8.1,9.8,9,8.5,10c-1,0.8-2,1.5-2.9,2.3c-1.2,1.1-2.5,2.1-3.7,3.2c-0.1,0.1-0.2,0.2-0.3,0.2c0.3-1,0.7-2,1.4-2.8
	c0.6-0.9,1.4-1.6,2.3-2.3H3.7c0.1-0.2,0.2-0.4,0.3-0.5c0.8-1.1,1.8-2,2.9-2.8C7.8,6.6,8.7,6,9.6,5.5C10.8,4.9,12,4.4,13.3,4
	c0.9-0.3,1.9-0.5,2.8-0.7s2-0.3,3-0.3c0.7,0,1.3,0,2,0c0.8,0,1.5,0.1,2.3,0.2C23.4,3.1,23.4,3.1,23.5,3.2z"/>
<path class="st1" d="M35.2,12.2l-2.4,1v-0.1l0.9-0.6v-0.1l-2.1,0.1v-0.1C32.7,12.1,33.9,12,35.2,12.2L35.2,12.2z"/>
<path class="st1" d="M35.7,8.2c0-0.8,0.5-1.4,1.3-1.6c0.1,0,0.3,0,0.3,0.1c0,0.1,0,0.2-0.1,0.3c-0.3,0.5-0.8,0.8-1.3,1.1L35.7,8.2z"
	/>
</svg>
